<svg xmlns="http://www.w3.org/2000/svg" viewBox="0 0 1100 300" role="img" aria-label="Research process diagram from problem to impact.">
<rect width="1100" height="300" fill="#f7f7f3"/>
<line x1="250" y1="80.0" x2="284" y2="80.0" stroke="#101010" stroke-width="3"/><polygon points="300,80.0 284,72.0 284,88.0" fill="#101010"/>
<line x1="520" y1="80.0" x2="554" y2="80.0" stroke="#101010" stroke-width="3"/><polygon points="570,80.0 554,72.0 554,88.0" fill="#101010"/>
<line x1="790" y1="80.0" x2="824" y2="80.0" stroke="#101010" stroke-width="3"/><polygon points="840,80.0 824,72.0 824,88.0" fill="#101010"/>
<line x1="950.0" y1="120" x2="950.0" y2="144" stroke="#101010" stroke-width="3"/>
<polygon points="950.0,160 942.0,176 958.0,176" fill="#101010"/>
<line x1="586" y1="200.0" x2="790" y2="200.0" stroke="#101010" stroke-width="3"/><polygon points="570,200.0 586,192.0 586,208.0" fill="#101010"/>
<line x1="316" y1="200.0" x2="520" y2="200.0" stroke="#101010" stroke-width="3"/><polygon points="300,200.0 316,192.0 316,208.0" fill="#101010"/>
<line x1="46" y1="200.0" x2="250" y2="200.0" stroke="#101010" stroke-width="3"/><polygon points="30,200.0 46,192.0 46,208.0" fill="#101010"/>
<rect x="16" y="26" width="28" height="28" fill="#d9ff43" stroke="#101010" stroke-width="3"/><text x="30" y="45" font-family="Arial" font-size="13" font-weight="900" text-anchor="middle" fill="#101010">01</text>
<rect x="30" y="40" width="220" height="80" fill="#f7f7f3" stroke="#101010" stroke-width="3"/>
<text x="50" y="78" font-family="Arial,Helvetica,sans-serif" font-size="20" font-weight="900" letter-spacing="0.5" fill="#101010">PROBLEM</text>
<text x="51" y="102" font-family="Arial,Helvetica,sans-serif" font-size="11.5" fill="#777">define the real-world issue</text>
<rect x="286" y="26" width="28" height="28" fill="#d9ff43" stroke="#101010" stroke-width="3"/><text x="300" y="45" font-family="Arial" font-size="13" font-weight="900" text-anchor="middle" fill="#101010">02</text>
<rect x="300" y="40" width="220" height="80" fill="#f7f7f3" stroke="#101010" stroke-width="3"/>
<text x="320" y="78" font-family="Arial,Helvetica,sans-serif" font-size="20" font-weight="900" letter-spacing="0.5" fill="#101010">OBSERVATION</text>
<text x="321" y="102" font-family="Arial,Helvetica,sans-serif" font-size="11.5" fill="#777">study context &amp; constraints</text>
<rect x="556" y="26" width="28" height="28" fill="#d9ff43" stroke="#101010" stroke-width="3"/><text x="570" y="45" font-family="Arial" font-size="13" font-weight="900" text-anchor="middle" fill="#101010">03</text>
<rect x="570" y="40" width="220" height="80" fill="#f7f7f3" stroke="#101010" stroke-width="3"/>
<text x="590" y="78" font-family="Arial,Helvetica,sans-serif" font-size="20" font-weight="900" letter-spacing="0.5" fill="#101010">RESEARCH</text>
<text x="591" y="102" font-family="Arial,Helvetica,sans-serif" font-size="11.5" fill="#777">ask &amp; investigate</text>
<rect x="826" y="26" width="28" height="28" fill="#d9ff43" stroke="#101010" stroke-width="3"/><text x="840" y="45" font-family="Arial" font-size="13" font-weight="900" text-anchor="middle" fill="#101010">04</text>
<rect x="840" y="40" width="220" height="80" fill="#f7f7f3" stroke="#101010" stroke-width="3"/>
<text x="860" y="78" font-family="Arial,Helvetica,sans-serif" font-size="20" font-weight="900" letter-spacing="0.5" fill="#101010">EVIDENCE</text>
<text x="861" y="102" font-family="Arial,Helvetica,sans-serif" font-size="11.5" fill="#777">measure what is true</text>
<rect x="826" y="146" width="28" height="28" fill="#d9ff43" stroke="#101010" stroke-width="3"/><text x="840" y="165" font-family="Arial" font-size="13" font-weight="900" text-anchor="middle" fill="#101010">05</text>
<rect x="840" y="160" width="220" height="80" fill="#f7f7f3" stroke="#101010" stroke-width="3"/>
<text x="860" y="198" font-family="Arial,Helvetica,sans-serif" font-size="20" font-weight="900" letter-spacing="0.5" fill="#101010">PROTOTYPE</text>
<text x="861" y="222" font-family="Arial,Helvetica,sans-serif" font-size="11.5" fill="#777">build a minimal system</text>
<rect x="556" y="146" width="28" height="28" fill="#d9ff43" stroke="#101010" stroke-width="3"/><text x="570" y="165" font-family="Arial" font-size="13" font-weight="900" text-anchor="middle" fill="#101010">06</text>
<rect x="570" y="160" width="220" height="80" fill="#f7f7f3" stroke="#101010" stroke-width="3"/>
<text x="590" y="198" font-family="Arial,Helvetica,sans-serif" font-size="20" font-weight="900" letter-spacing="0.5" fill="#101010">VALIDATION</text>
<text x="591" y="222" font-family="Arial,Helvetica,sans-serif" font-size="11.5" fill="#777">test against reality</text>
<rect x="286" y="146" width="28" height="28" fill="#d9ff43" stroke="#101010" stroke-width="3"/><text x="300" y="165" font-family="Arial" font-size="13" font-weight="900" text-anchor="middle" fill="#101010">07</text>
<rect x="300" y="160" width="220" height="80" fill="#f7f7f3" stroke="#101010" stroke-width="3"/>
<text x="320" y="198" font-family="Arial,Helvetica,sans-serif" font-size="20" font-weight="900" letter-spacing="0.5" fill="#101010">DEPLOYMENT</text>
<text x="321" y="222" font-family="Arial,Helvetica,sans-serif" font-size="11.5" fill="#777">ship into use</text>
<rect x="16" y="146" width="28" height="28" fill="#d9ff43" stroke="#101010" stroke-width="3"/><text x="30" y="165" font-family="Arial" font-size="13" font-weight="900" text-anchor="middle" fill="#101010">08</text>
<rect x="30" y="160" width="220" height="80" fill="#f7f7f3" stroke="#101010" stroke-width="3"/>
<text x="50" y="198" font-family="Arial,Helvetica,sans-serif" font-size="20" font-weight="900" letter-spacing="0.5" fill="#101010">IMPACT</text>
<text x="51" y="222" font-family="Arial,Helvetica,sans-serif" font-size="11.5" fill="#777">translate into value</text>
</svg>